<svg width="3694" height="10394" viewBox="0 0 3694 10394" fill="none" xmlns="http://www.w3.org/2000/svg">
<rect x="1" y="1" width="3692" height="10393" fill="#070912"/>
<path d="M1 1358.46V1H3693V1099.26C3596.74 1126.31 3489.72 981.445 3448.24 905.632C3049.21 3.25391 2522.32 192.923 2308.76 400.554C1300.09 1602.91 349.975 1540.14 1 1358.46Z" fill="url(#paint0_linear_180_17)" stroke="black"/>
<circle cx="1307.75" cy="4212.96" r="426.749" fill="url(#paint1_linear_180_17)" fill-opacity="0.5"/>
<circle cx="2328.07" cy="4050.8" r="360.797" fill="url(#paint2_linear_180_17)" fill-opacity="0.5"/>
<circle cx="1422.58" cy="4967.14" r="287.085" fill="url(#paint3_linear_180_17)" fill-opacity="0.5"/>
<circle cx="2293.15" cy="4967.14" r="519.858" fill="url(#paint4_linear_180_17)" fill-opacity="0.5"/>
<circle cx="1307.75" cy="7666.96" r="426.749" fill="url(#paint5_linear_180_17)" fill-opacity="0.5"/>
<circle cx="2328.07" cy="7504.8" r="360.797" fill="url(#paint6_linear_180_17)" fill-opacity="0.5"/>
<circle cx="1422.58" cy="8421.14" r="287.085" fill="url(#paint7_linear_180_17)" fill-opacity="0.5"/>
<circle cx="2293.15" cy="8421.14" r="519.858" fill="url(#paint8_linear_180_17)" fill-opacity="0.5"/>
<defs>
<linearGradient id="paint0_linear_180_17" x1="1793.52" y1="170.042" x2="1793.52" y2="1064.43" gradientUnits="userSpaceOnUse">
<stop stop-color="#8803A0"/>
<stop offset="1" stop-color="#FF7180"/>
</linearGradient>
<linearGradient id="paint1_linear_180_17" x1="1158.79" y1="3949.03" x2="1498.87" y2="4409.05" gradientUnits="userSpaceOnUse">
<stop stop-color="#8803A0"/>
<stop offset="1" stop-color="#FF7180"/>
</linearGradient>
<linearGradient id="paint2_linear_180_17" x1="2317.61" y1="3773.66" x2="2181.29" y2="4210.96" gradientUnits="userSpaceOnUse">
<stop stop-color="#8803A0"/>
<stop offset="1" stop-color="#FF7180"/>
</linearGradient>
<linearGradient id="paint3_linear_180_17" x1="1359.78" y1="5142.03" x2="1624.77" y2="4862.92" gradientUnits="userSpaceOnUse">
<stop stop-color="#8803A0"/>
<stop offset="1" stop-color="#FF7180"/>
</linearGradient>
<linearGradient id="paint4_linear_180_17" x1="2576.49" y1="5054.59" x2="1976.92" y2="4688.11" gradientUnits="userSpaceOnUse">
<stop stop-color="#8803A0"/>
<stop offset="1" stop-color="#FF7180"/>
</linearGradient>
<linearGradient id="paint5_linear_180_17" x1="1158.79" y1="7403.03" x2="1498.87" y2="7863.05" gradientUnits="userSpaceOnUse">
<stop stop-color="#8803A0"/>
<stop offset="1" stop-color="#FF7180"/>
</linearGradient>
<linearGradient id="paint6_linear_180_17" x1="2317.61" y1="7227.66" x2="2181.29" y2="7664.96" gradientUnits="userSpaceOnUse">
<stop stop-color="#8803A0"/>
<stop offset="1" stop-color="#FF7180"/>
</linearGradient>
<linearGradient id="paint7_linear_180_17" x1="1359.78" y1="8596.03" x2="1624.77" y2="8316.92" gradientUnits="userSpaceOnUse">
<stop stop-color="#8803A0"/>
<stop offset="1" stop-color="#FF7180"/>
</linearGradient>
<linearGradient id="paint8_linear_180_17" x1="2576.49" y1="8508.59" x2="1976.92" y2="8142.11" gradientUnits="userSpaceOnUse">
<stop stop-color="#8803A0"/>
<stop offset="1" stop-color="#FF7180"/>
</linearGradient>
</defs>
</svg>

