<svg width="103" height="118" viewBox="0 0 103 118" fill="none" xmlns="http://www.w3.org/2000/svg">
<g clip-path="url(#clip0_241_24)">
<path d="M103 18.4375V29.5C103 39.6867 79.94 47.9375 51.5 47.9375C23.06 47.9375 0 39.6867 0 29.5V18.4375C0 8.25078 23.06 0 51.5 0C79.94 0 103 8.25078 103 18.4375ZM90.4009 49.4816C95.183 47.7762 99.5743 45.5867 103 42.8902V66.375C103 76.5617 79.94 84.8125 51.5 84.8125C23.06 84.8125 0 76.5617 0 66.375V42.8902C3.42567 45.6098 7.81696 47.7762 12.5991 49.4816C22.9221 53.1691 36.6708 55.3125 51.5 55.3125C66.3292 55.3125 80.0779 53.1691 90.4009 49.4816ZM0 79.7652C3.42567 82.4848 7.81696 84.6512 12.5991 86.3566C22.9221 90.0441 36.6708 92.1875 51.5 92.1875C66.3292 92.1875 80.0779 90.0441 90.4009 86.3566C95.183 84.6512 99.5743 82.4617 103 79.7652V99.5625C103 109.749 79.94 118 51.5 118C23.06 118 0 109.749 0 99.5625V79.7652Z" fill="url(#paint0_linear_241_24)"/>
</g>
<defs>
<linearGradient id="paint0_linear_241_24" x1="96.5" y1="47.5" x2="2.47399e-06" y2="104" gradientUnits="userSpaceOnUse">
<stop stop-color="#8803A0"/>
<stop offset="1" stop-color="#FF7180"/>
</linearGradient>
<clipPath id="clip0_241_24">
<rect width="103" height="118" fill="white"/>
</clipPath>
</defs>
</svg>
