<svg width="75" height="86" viewBox="0 0 75 86" fill="none" xmlns="http://www.w3.org/2000/svg">
<g clip-path="url(#clip0_237_4)">
<path d="M58.4933 7.49146C59.481 5.19029 58.7444 2.50279 56.7187 1.02466C54.6931 -0.453461 51.9308 -0.319086 50.039 1.32701L7.18191 38.952C5.5078 40.4301 4.90512 42.7985 5.69195 44.8813C6.47878 46.9641 8.48771 48.3751 10.7143 48.3751H29.3806L16.5067 78.5086C15.519 80.8098 16.2556 83.4973 18.2812 84.9754C20.3069 86.4536 23.0692 86.3192 24.9609 84.6731L67.8181 47.0481C69.4922 45.57 70.0949 43.2016 69.308 41.1188C68.5212 39.036 66.529 37.6419 64.2857 37.6419H45.6194L58.4933 7.49146Z" fill="url(#paint0_linear_237_4)"/>
</g>
<defs>
<linearGradient id="paint0_linear_237_4" x1="66.369" y1="51.9584" x2="11.5849" y2="65.9057" gradientUnits="userSpaceOnUse">
<stop stop-color="#8803A0"/>
<stop offset="1" stop-color="#FF7180"/>
</linearGradient>
<clipPath id="clip0_237_4">
<rect width="75" height="86" fill="white"/>
</clipPath>
</defs>
</svg>
