<svg width="88" height="88" viewBox="0 0 88 88" fill="none" xmlns="http://www.w3.org/2000/svg">
<g clip-path="url(#clip0_237_9)">
<path d="M13.5092 0.859244C11.8764 -0.412631 9.55605 -0.257944 8.07793 1.20299L1.20293 8.07799C-0.258008 9.53893 -0.412695 11.8592 0.841992 13.5092L14.592 31.3842C15.3654 32.3983 16.5857 32.9999 17.8576 32.9999H27.1561L45.8904 51.7342C43.3639 56.7186 44.1717 62.9749 48.3482 67.1342L67.5982 86.3842C69.7467 88.5327 73.2357 88.5327 75.3842 86.3842L86.3842 75.3842C88.5326 73.2358 88.5326 69.7467 86.3842 67.5983L67.1342 48.3483C62.9748 44.1889 56.7186 43.3639 51.7342 45.8905L32.9998 27.1561V17.8577C32.9998 16.5686 32.3982 15.3655 31.3842 14.5921L13.5092 0.859244ZM3.42012 68.0796C1.2373 70.2624 -0.000195338 73.2358 -0.000195338 76.3296C-0.000195338 82.7749 5.2248 87.9999 11.6701 87.9999C14.7639 87.9999 17.7373 86.7624 19.9201 84.5796L40.167 64.3327C38.8264 60.7405 38.6201 56.8389 39.5482 53.1436L28.9436 42.5389L3.42012 68.0796ZM87.9998 24.7499C87.9998 22.9452 87.8107 21.1921 87.4498 19.5077C87.0373 17.5827 84.6826 17.0842 83.2904 18.4764L72.3076 29.4592C71.792 29.9749 71.0873 30.2671 70.3654 30.2671L60.4998 30.2499C58.9873 30.2499 57.7498 29.0124 57.7498 27.4999V17.6342C57.7498 16.9124 58.042 16.2077 58.5576 15.6921L69.5404 4.70924C70.9326 3.31706 70.4342 0.962369 68.5092 0.549869C66.8076 0.188931 65.0545 -0.000131132 63.2498 -0.000131132C49.5857 -0.000131132 38.4998 11.0858 38.4998 24.7499V24.8874L53.1607 39.5483C59.3482 37.9842 66.1889 39.6342 71.0357 44.4811L73.7342 47.1796C82.1561 43.2264 87.9998 34.6671 87.9998 24.7499ZM9.6248 74.2499C9.6248 73.1559 10.0594 72.1066 10.833 71.3331C11.6066 70.5595 12.6558 70.1249 13.7498 70.1249C14.8438 70.1249 15.893 70.5595 16.6666 71.3331C17.4402 72.1066 17.8748 73.1559 17.8748 74.2499C17.8748 75.3439 17.4402 76.3931 16.6666 77.1667C15.893 77.9403 14.8438 78.3749 13.7498 78.3749C12.6558 78.3749 11.6066 77.9403 10.833 77.1667C10.0594 76.3931 9.6248 75.3439 9.6248 74.2499Z" fill="url(#paint0_linear_237_9)"/>
</g>
<defs>
<linearGradient id="paint0_linear_237_9" x1="81.2514" y1="43.73" x2="-9.29789e-05" y2="72.6134" gradientUnits="userSpaceOnUse">
<stop stop-color="#8803A0"/>
<stop offset="1" stop-color="#FF7180"/>
</linearGradient>
<clipPath id="clip0_237_9">
<rect width="88" height="88" fill="white"/>
</clipPath>
</defs>
</svg>
