<?xml version="1.0" encoding="UTF-8"?>
<svg version="1.1" xmlns="http://www.w3.org/2000/svg" width="50" height="50">
<path d="M0 0 C1.1875 2.5625 1.1875 2.5625 2 5 C2.99 5 3.98 5 5 5 C5 5.66 5 6.32 5 7 C6.0725 6.87625 7.145 6.7525 8.25 6.625 C12 7 12 7 14.375 9.6875 C16.91529153 14.86578658 16.91529153 14.86578658 17 18 C16.0206121 19.02019573 15.02104551 20.02149805 14 21 C14.24756445 23.07361988 14.24756445 23.07361988 15 25 C15 25.66 15 26.32 15 27 C15.66 27.66 16.32 28.32 17 29 C16.85884889 33.94028892 13.9187003 37.2627712 11 41 C8.03 40.505 8.03 40.505 5 40 C5 40.99 5 41.98 5 43 C3.68 42.67 2.36 42.34 1 42 C0.87625 42.804375 0.7525 43.60875 0.625 44.4375 C0.315625 45.7059375 0.315625 45.7059375 0 47 C-2.3396669 48.16983345 -3.83391527 48.1661241 -6.4375 48.1875 C-7.21996094 48.20167969 -8.00242187 48.21585938 -8.80859375 48.23046875 C-11 48 -11 48 -14 46 C-14.66 45.01 -15.32 44.02 -16 43 C-16.99 42.67 -17.98 42.34 -19 42 C-19.66 41.67 -20.32 41.34 -21 41 C-21.64324219 40.89300781 -22.28648438 40.78601562 -22.94921875 40.67578125 C-25.66485614 39.78091407 -26.33264262 38.59729797 -27.8125 36.1875 C-28.25207031 35.50042969 -28.69164062 34.81335937 -29.14453125 34.10546875 C-30.17800629 31.5618932 -30.02773999 30.51401012 -29 28 C-28.34 27.34 -27.68 26.68 -27 26 C-27.30872984 23.68452621 -27.95169621 22.08318986 -29.125 20.0625 C-30.3269945 17.22922725 -29.96976703 15.90930109 -29 13 C-27.3125 9.75 -27.3125 9.75 -25 7 C-21.9375 6.25 -21.9375 6.25 -19 6 C-18.01 5.34 -17.02 4.68 -16 4 C-15.67 4.33 -15.34 4.66 -15 5 C-14.731875 4.195625 -14.46375 3.39125 -14.1875 2.5625 C-13.795625 1.716875 -13.40375 0.87125 -13 0 C-8.52745503 -1.49084832 -4.47254497 -1.49084832 0 0 Z " fill="#810A9C" transform="translate(32,2)"/>
<path d="M0 0 C5.76779026 1.83520599 5.76779026 1.83520599 7.9375 3.375 C9.97566466 4.25137949 9.97566466 4.25137949 11.66015625 3.1640625 C12.88241183 2.3907458 14.10377405 1.61601522 15.32421875 0.83984375 C17 0 17 0 19.3125 0.5625 C21 2 21 2 23 5 C22.45945946 9.54054054 22.45945946 9.54054054 21 11 C21.66 11.33 22.32 11.66 23 12 C22.40268456 17.37583893 22.40268456 17.37583893 20.75 19.9375 C19 21 19 21 16.5 20.8125 C14 20 14 20 11 18 C7.53581611 18.34641839 5.95070119 19.03286587 3 21 C0.17948582 20.82371786 -0.80460098 20.19539902 -2.8125 18.1875 C-4 16 -4 16 -3.6875 13.875 C-3.460625 13.25625 -3.23375 12.6375 -3 12 C-2.8971651 9.91189406 -2.8971651 9.91189406 -3.75 7.6875 C-4 5 -4 5 -2.0625 2.1875 C-1.381875 1.465625 -0.70125 0.74375 0 0 Z " fill="#E86385" transform="translate(16,15)"/>
<path d="M0 0 C1.1875 2.5625 1.1875 2.5625 2 5 C2.99 5 3.98 5 5 5 C5 5.66 5 6.32 5 7 C6.0725 6.87625 7.145 6.7525 8.25 6.625 C12 7 12 7 14.375 9.6875 C16.91529153 14.86578658 16.91529153 14.86578658 17 18 C16.0206121 19.02019573 15.02104551 20.02149805 14 21 C14.24756445 23.07361988 14.24756445 23.07361988 15 25 C15 25.66 15 26.32 15 27 C15.66 27.66 16.32 28.32 17 29 C16.85884889 33.94028892 13.9187003 37.2627712 11 41 C8.03 40.505 8.03 40.505 5 40 C5 40.99 5 41.98 5 43 C3.68 42.67 2.36 42.34 1 42 C0.87625 42.804375 0.7525 43.60875 0.625 44.4375 C0.315625 45.7059375 0.315625 45.7059375 0 47 C-2.3396669 48.16983345 -3.83391527 48.1661241 -6.4375 48.1875 C-7.21996094 48.20167969 -8.00242187 48.21585938 -8.80859375 48.23046875 C-11 48 -11 48 -14 46 C-14.66 45.01 -15.32 44.02 -16 43 C-16.99 42.67 -17.98 42.34 -19 42 C-19.66 41.67 -20.32 41.34 -21 41 C-21.64324219 40.89300781 -22.28648438 40.78601562 -22.94921875 40.67578125 C-25.66485614 39.78091407 -26.33264262 38.59729797 -27.8125 36.1875 C-28.25207031 35.50042969 -28.69164062 34.81335937 -29.14453125 34.10546875 C-30.17800629 31.5618932 -30.02773999 30.51401012 -29 28 C-28.34 27.34 -27.68 26.68 -27 26 C-27.30872984 23.68452621 -27.95169621 22.08318986 -29.125 20.0625 C-30.3269945 17.22922725 -29.96976703 15.90930109 -29 13 C-27.3125 9.75 -27.3125 9.75 -25 7 C-21.9375 6.25 -21.9375 6.25 -19 6 C-18.01 5.34 -17.02 4.68 -16 4 C-15.67 4.33 -15.34 4.66 -15 5 C-14.731875 4.195625 -14.46375 3.39125 -14.1875 2.5625 C-13.795625 1.716875 -13.40375 0.87125 -13 0 C-8.52745503 -1.49084832 -4.47254497 -1.49084832 0 0 Z M-13 2 C-13.36760731 4.32817964 -13.70241581 6.6618385 -14 9 C-17.3 8.67 -20.6 8.34 -24 8 C-27.15191044 11.91262394 -27.15191044 11.91262394 -27.9375 16.6875 C-27.1586225 19.05994367 -27.1586225 19.05994367 -25.375 20.5625 C-24.92125 21.036875 -24.4675 21.51125 -24 22 C-24.125 24 -24.125 24 -25 26 C-25.804375 26.680625 -25.804375 26.680625 -26.625 27.375 C-28.33161207 29.01962132 -28.33161207 29.01962132 -27.875 31.9375 C-26.81030922 36.04738264 -26.81030922 36.04738264 -24 39 C-20.92911268 39.02727253 -18.01005817 38.58055629 -15 38 C-14.01 40.64 -13.02 43.28 -12 46 C-10.18757948 46.02687279 -8.37504767 46.04633715 -6.5625 46.0625 C-5.55316406 46.07410156 -4.54382813 46.08570313 -3.50390625 46.09765625 C-1.05978933 46.28612676 -1.05978933 46.28612676 0 45 C0.04092937 42.66702567 0.04241723 40.33294775 0 38 C3.63 38.33 7.26 38.66 11 39 C14.15191044 35.08737606 14.15191044 35.08737606 14.9375 30.3125 C14.1586225 27.94005633 14.1586225 27.94005633 12.375 26.4375 C11.92125 25.963125 11.4675 25.48875 11 25 C11.125 23 11.125 23 12 21 C12.53625 20.54625 13.0725 20.0925 13.625 19.625 C15.32386091 17.98087282 15.32386091 17.98087282 14.9375 15.0625 C13.8300166 11.44472088 13.22644414 10.01652759 10 8 C6.9249101 7.9734906 4.01235333 8.40782798 1 9 C0.5359375 7.2984375 0.5359375 7.2984375 0.0625 5.5625 C-0.62924531 2.21224901 -0.62924531 2.21224901 -2 1 C-3.66429051 0.90176063 -5.33281931 0.87026369 -7 0.875 C-7.9075 0.87242188 -8.815 0.86984375 -9.75 0.8671875 C-11.96966611 0.74826221 -11.96966611 0.74826221 -13 2 Z " fill="#33033D" transform="translate(32,2)"/>
<path d="M0 0 C0.55171875 0.16371094 1.1034375 0.32742187 1.671875 0.49609375 C4.26614007 1.05760414 6.59835411 1.09739008 9.25 1.0625 C10.58804687 1.04896484 10.58804687 1.04896484 11.953125 1.03515625 C12.62859375 1.02355469 13.3040625 1.01195312 14 1 C14.04254356 2.99954746 14.04080783 5.00041636 14 7 C13 8 13 8 10.49609375 8.09765625 C8.98208984 8.08025391 8.98208984 8.08025391 7.4375 8.0625 C6.42558594 8.05347656 5.41367187 8.04445313 4.37109375 8.03515625 C3.58863281 8.02355469 2.80617188 8.01195312 2 8 C0.74335022 5.09399739 0 3.20395416 0 0 Z " fill="#720485" transform="translate(18,40)"/>
<path d="M0 0 C1.32 0.66 2.64 1.32 4 2 C3.53256152 6.11345859 3.11081018 9.11139055 0 12 C-2.6875 12.25 -2.6875 12.25 -5 12 C-5 8.55639368 -4.20408468 7.25204608 -2.5 4.3125 C-2.0359375 3.50425781 -1.571875 2.69601563 -1.09375 1.86328125 C-0.7328125 1.24839844 -0.371875 0.63351563 0 0 Z " fill="#87069E" transform="translate(43,29)"/>
<path d="M0 0 C1.65 0.33 3.3 0.66 5 1 C4.39368508 4.39536357 3.10421197 6.30660868 1 9 C0.30419733 10.31836295 -0.37224433 11.64791086 -1 13 C-2.5625 11.875 -2.5625 11.875 -4 10 C-3.81878333 5.74140837 -2.81307141 3.17999377 0 0 Z " fill="#8B09A3" transform="translate(8,10)"/>
<path d="M0 0 C2.4375 0.6875 2.4375 0.6875 5 2 C5.9375 4.5 5.9375 4.5 6 7 C5.34 7.66 4.68 8.32 4 9 C0.70285207 8.67028521 -0.6226839 8.3773161 -3 6 C-2.63318342 3.06546739 -2.13562754 2.13562754 0 0 Z " fill="#FD8490" transform="translate(24,21)"/>
<path d="M0 0 C3.07538384 0.21209544 4.07072616 1.06881465 6.3125 3.25 C8 6 8 6 7.9375 8.6875 C7 11 7 11 4 13 C3.80664062 12.38511719 3.61328125 11.77023438 3.4140625 11.13671875 C3.15367188 10.32847656 2.89328125 9.52023438 2.625 8.6875 C2.36976562 7.88699219 2.11453125 7.08648437 1.8515625 6.26171875 C1.01168189 3.77275472 1.01168189 3.77275472 -1 1 C-0.67 0.67 -0.34 0.34 0 0 Z " fill="#8E0AA6" transform="translate(39,10)"/>
<path d="M0 0 C3.96 1.98 3.96 1.98 8 4 C7.6875 6.875 7.6875 6.875 7 10 C6.01 10.66 5.02 11.32 4 12 C4 11.01 4 10.02 4 9 C3.01 8.67 2.02 8.34 1 8 C1.66 8 2.32 8 3 8 C3 7.01 3 6.02 3 5 C1.02 5.99 1.02 5.99 -1 7 C-0.67 4.69 -0.34 2.38 0 0 Z " fill="#E96584" transform="translate(31,23)"/>
<path d="M0 0 C1.9375 1.375 1.9375 1.375 2.6875 4 C2.81125 5.175625 2.81125 5.175625 2.9375 6.375 C1.9475 6.045 0.9575 5.715 -0.0625 5.375 C-0.3925 6.035 -0.7225 6.695 -1.0625 7.375 C-1.0625 6.715 -1.0625 6.055 -1.0625 5.375 C-3.3725 5.045 -5.6825 4.715 -8.0625 4.375 C-2.96045918 -0.89710884 -2.96045918 -0.89710884 0 0 Z " fill="#F06981" transform="translate(35.0625,15.625)"/>
<path d="M0 0 C1.15628906 0.23396484 1.15628906 0.23396484 2.3359375 0.47265625 C3.84027344 0.76462891 3.84027344 0.76462891 5.375 1.0625 C6.37273438 1.25972656 7.37046875 1.45695312 8.3984375 1.66015625 C10.97842539 2.24382952 10.97842539 2.24382952 13 1 C12.67 2.65 12.34 4.3 12 6 C11.01 6.33 10.02 6.66 9 7 C8.01 6.34 7.02 5.68 6 5 C5.34 6.32 4.68 7.64 4 9 C3.896875 8.38125 3.79375 7.7625 3.6875 7.125 C3.12474627 4.63473516 3.12474627 4.63473516 0 3 C0 2.01 0 1.02 0 0 Z " fill="#DE588A" transform="translate(26,19)"/>
<path d="M0 0 C3.3 0 6.6 0 10 0 C10.33 1.65 10.66 3.3 11 5 C7.37 4.67 3.74 4.34 0 4 C0 2.68 0 1.36 0 0 Z " fill="#900AA9" transform="translate(20,3)"/>
<path d="M0 0 C0.66 0 1.32 0 2 0 C2.28875 0.639375 2.5775 1.27875 2.875 1.9375 C3.82823451 4.15206079 3.82823451 4.15206079 6 5 C6 6.65 6 8.3 6 10 C3.36 8.68 0.72 7.36 -2 6 C-1.125 1.125 -1.125 1.125 0 0 Z " fill="#F26B81" transform="translate(14,18)"/>
<path d="M0 0 C0.33 0.99 0.66 1.98 1 3 C2.98567708 2.96744792 4.97135417 2.93489583 6.95703125 2.90234375 C9 3 9 3 12 4 C12.33 3.01 12.66 2.02 13 1 C13 2.98 13 4.96 13 7 C8.71 7 4.42 7 0 7 C0 4.69 0 2.38 0 0 Z " fill="#720485" transform="translate(19,4)"/>
<path d="M0 0 C0.33 0.99 0.66 1.98 1 3 C1.928125 2.7215625 1.928125 2.7215625 2.875 2.4375 C5 2 5 2 7 3 C6.3125 4.9375 6.3125 4.9375 5 7 C2.375 7.75 2.375 7.75 0 8 C-0.99 6.35 -1.98 4.7 -3 3 C-2.01 2.01 -1.02 1.02 0 0 Z " fill="#F26B81" transform="translate(16,28)"/>
<path d="M0 0 C1.0828125 0.7115625 1.0828125 0.7115625 2.1875 1.4375 C4.89475226 2.94152903 6.96194275 3.56599182 10 4 C10.33 4.99 10.66 5.98 11 7 C10.01 7.33 9.02 7.66 8 8 C8 7.34 8 6.68 8 6 C7.05125 6 6.1025 6 5.125 6 C2.41666667 6 -0.29166667 6 -3 6 C-2.42655063 3.13275314 -2.1385485 2.1385485 0 0 Z " fill="#E65D8A" transform="translate(15,25)"/>
<path d="M0 0 C3.63 0 7.26 0 11 0 C11 1.32 11 2.64 11 4 C7.37 4 3.74 4 0 4 C0 2.68 0 1.36 0 0 Z " fill="#940BAE" transform="translate(20,44)"/>
<path d="M0 0 C2.56269497 1.04109483 4.02610343 2.02610343 6 4 C6.4140625 6.1640625 6.4140625 6.1640625 6.625 8.625 C6.69976562 9.44226562 6.77453125 10.25953125 6.8515625 11.1015625 C6.92503906 12.04128906 6.92503906 12.04128906 7 13 C4.19951635 11.59975817 3.97945497 9.57091086 2.86328125 6.7890625 C1.68826472 4.35396037 0.03131866 2.75113677 -2 1 C-1.34 0.67 -0.68 0.34 0 0 Z " fill="#700382" transform="translate(36,11)"/>
<path d="M0 0 C0.66 0 1.32 0 2 0 C3.61064629 3.65079826 4.44894091 7.0507432 5 11 C2.58896173 10.03558469 1.22595242 9.31202953 -0.3125 7.1875 C-1.17031512 4.45808824 -0.75644808 2.72321308 0 0 Z " fill="#910CAB" transform="translate(5,30)"/>
<path d="M0 0 C0.66 0 1.32 0 2 0 C2.84114171 1.43294498 3.67265687 2.87154405 4.5 4.3125 C5.19609375 5.51326172 5.19609375 5.51326172 5.90625 6.73828125 C7 9 7 9 7 12 C5.68 11.67 4.36 11.34 3 11 C0.85714286 3.57142857 0.85714286 3.57142857 0 0 Z " fill="#820599" transform="translate(6,29)"/>
<path d="M0 0 C0.66 0.66 1.32 1.32 2 2 C1.23832543 3.46313772 0.46529293 4.92036661 -0.3125 6.375 C-0.95638672 7.59316406 -0.95638672 7.59316406 -1.61328125 8.8359375 C-3 11 -3 11 -6 13 C-5.39148357 9.592308 -4.06700371 7.7284449 -2 5 C-1.28837557 3.35202764 -0.60968047 1.68834592 0 0 Z " fill="#6B037C" transform="translate(42,27)"/>
<path d="M0 0 C1.65 0.99 3.3 1.98 5 3 C4.67 4.65 4.34 6.3 4 8 C3.67 7.01 3.34 6.02 3 5 C1.02 5.99 1.02 5.99 -1 7 C-0.67 4.69 -0.34 2.38 0 0 Z M1 8 C3 9 3 9 3 9 Z " fill="#FD717C" transform="translate(31,23)"/>
<path d="M0 0 C0.99 0.33 1.98 0.66 3 1 C2.21625 2.051875 1.4325 3.10375 0.625 4.1875 C-1.40508579 7.01696802 -2.89112979 9.67338936 -4 13 C-4.33 13 -4.66 13 -5 13 C-5.40121283 9.48938777 -5.20702695 8.28048812 -3.0625 5.375 C-2.381875 4.59125 -1.70125 3.8075 -1 3 C-0.67 2.01 -0.34 1.02 0 0 Z " fill="#6A037C" transform="translate(13,11)"/>
<path d="M0 0 C3.18039795 1.59019898 3.75760567 4.84418554 5 8 C5.391875 8.969375 5.78375 9.93875 6.1875 10.9375 C6.455625 11.618125 6.72375 12.29875 7 13 C2.80186938 9.25572134 0.92223883 6.1596937 -1 1 C-0.67 0.67 -0.34 0.34 0 0 Z " fill="#6A037B" transform="translate(8,27)"/>
<path d="M0 0 C0.99 0.33 1.98 0.66 3 1 C2.6875 3.875 2.6875 3.875 2 7 C1.01 7.66 0.02 8.32 -1 9 C-0.67 6.03 -0.34 3.06 0 0 Z " fill="#920DAC" transform="translate(44,30)"/>
<path d="M0 0 C0.99 0.33 1.98 0.66 3 1 C2.54625 1.5775 2.0925 2.155 1.625 2.75 C0.15886484 4.7800333 -0.94857784 6.73539843 -2 9 C-2.6875 6.75 -2.6875 6.75 -3 4 C-1.5625 1.6875 -1.5625 1.6875 0 0 Z " fill="#750892" transform="translate(13,15)"/>
<path d="M0 0 C2.31 0.33 4.62 0.66 7 1 C7.33 1.99 7.66 2.98 8 4 C7.01 4.33 6.02 4.66 5 5 C5 4.34 5 3.68 5 3 C3.35 3 1.7 3 0 3 C0 2.01 0 1.02 0 0 Z " fill="#D7528A" transform="translate(18,28)"/>
</svg>
