<svg width="114" height="114" viewBox="0 0 114 114" fill="none" xmlns="http://www.w3.org/2000/svg">
<g clip-path="url(#clip0_237_19)">
<path d="M34.8679 85.7004L27.9879 78.8204C26.0953 76.9278 25.4273 74.1891 26.2734 71.6508C26.9414 69.6692 27.832 67.0864 28.9008 64.1251H5.34372C3.42888 64.1251 1.64763 63.1008 0.690206 61.4309C-0.267216 59.761 -0.24495 57.7126 0.734737 56.0649L12.4242 36.3598C15.3187 31.4836 20.5511 28.5001 26.2066 28.5001H44.5312C45.0656 27.6094 45.6 26.7856 46.1343 25.984C64.3699 -0.912838 91.534 -1.80346 107.743 1.18013C110.326 1.64771 112.33 3.67388 112.82 6.2567C115.803 22.4883 114.891 49.6301 88.016 67.8657C87.2367 68.4001 86.3906 68.9344 85.5 69.4688V87.7934C85.5 93.4489 82.5164 98.7036 77.6402 101.576L57.9351 113.265C56.2875 114.245 54.239 114.267 52.5691 113.31C50.8992 112.352 49.875 110.593 49.875 108.656V84.7876C46.7355 85.8786 43.9968 86.7692 41.9261 87.4372C39.4324 88.2387 36.716 87.5485 34.8457 85.7004H34.8679ZM85.5 37.4063C87.8621 37.4063 90.1274 36.468 91.7976 34.7977C93.4679 33.1275 94.4062 30.8621 94.4062 28.5001C94.4062 26.138 93.4679 23.8726 91.7976 22.2024C90.1274 20.5321 87.8621 19.5938 85.5 19.5938C83.1379 19.5938 80.8725 20.5321 79.2023 22.2024C77.5321 23.8726 76.5937 26.138 76.5937 28.5001C76.5937 30.8621 77.5321 33.1275 79.2023 34.7977C80.8725 36.468 83.1379 37.4063 85.5 37.4063Z" fill="url(#paint0_linear_237_19)"/>
</g>
<defs>
<linearGradient id="paint0_linear_237_19" x1="103.5" y1="38.5" x2="10.804" y2="97.9804" gradientUnits="userSpaceOnUse">
<stop stop-color="#8803A0"/>
<stop offset="1" stop-color="#FF7180"/>
</linearGradient>
<clipPath id="clip0_237_19">
<rect width="114" height="114" fill="white"/>
</clipPath>
</defs>
</svg>
